<?xml version="1.0" encoding="UTF-8"?>
<svg version="1.1" xmlns="http://www.w3.org/2000/svg" width="512" height="512">
<path d="M0 0 C1.01003102 3.42662375 0.75476774 5.97529088 0.26953125 9.5078125 C-4.63906552 54.89454786 20.54902657 102.03402817 38.72018433 142.13827515 C98.50965458 274.12193886 98.50965458 274.12193886 76.6640625 333.83984375 C61.99023586 371.66782542 26.35343074 394.95352188 -9.20361328 410.79296875 C-22.86444881 416.68952636 -36.94006332 421.42076197 -51.125 425.875 C-52.88360352 426.42909546 -52.88360352 426.42909546 -54.67773438 426.99438477 C-62.71706183 429.46151303 -70.75341255 431.36256836 -79 433 C-77.68125446 429.52242777 -76.15158767 426.33615376 -74.3125 423.10546875 C-44.64096903 370.20998937 -41.65357895 325.49254394 -52.52359009 266.65499878 C-60.36953209 224.16501675 -58.3452723 183.93227176 -48 142 C-65.76411228 175.38427998 -70.219958 220.14357753 -70.1875 257.3125 C-70.1882251 258.16958557 -70.1889502 259.02667114 -70.18969727 259.909729 C-70.18866028 271.11307874 -69.86086187 282.20173031 -69 293.375 C-68.13670787 304.79842194 -67.75249225 316.16528909 -67.70043945 327.61920166 C-67.69198971 329.37798287 -67.67854056 331.13674916 -67.65942383 332.89544678 C-67.30220174 369.43201577 -80.41540089 400.98053172 -102 430 C-103.88489399 432.53452166 -105.76016419 435.0756768 -107.625 437.625 C-108.13764404 438.3255249 -108.65028809 439.0260498 -109.1784668 439.74780273 C-113.27114401 445.42231585 -117.16626109 451.21764813 -121.02734375 457.05078125 C-121.82893921 458.26075775 -121.82893921 458.26075775 -122.64672852 459.49517822 C-125.36692168 463.60564492 -128.07660723 467.72263292 -130.77392578 471.84814453 C-131.78792391 473.38715104 -132.80207752 474.92605512 -133.81640625 476.46484375 C-134.27949692 477.17973465 -134.74258759 477.89462555 -135.2197113 478.63117981 C-138.53212608 483.6375757 -140.79286467 486.5016146 -146.875 487.875 C-150.99866308 488.25127466 -153.52652173 487.34257837 -157 485 C-160.33834781 481.77676763 -160.8452114 478.56626357 -161 474 C-159.14226743 468.86249201 -156.59696763 464.737282 -153.3125 460.375 C-149.82994744 455.62014975 -146.48889919 450.81782046 -143.375 445.8125 C-142.72273438 444.76707031 -142.07046875 443.72164063 -141.3984375 442.64453125 C-139.76626615 440.05658106 -139.76626615 440.05658106 -140 437 C-142.27912741 434.99956023 -142.27912741 434.99956023 -145.25 433 C-174.26341777 412.11883559 -193.67745656 381.13383408 -199.875 345.875 C-212.84201099 265.61084336 -173.40284429 183.90531139 -127.74804688 120.40478516 C-120.49145822 110.4219083 -112.94941205 100.69704363 -104.88378906 91.35449219 C-103.03378499 89.21063047 -101.20313821 87.05298664 -99.39111328 84.87695312 C-92.15166971 76.22824808 -84.45284444 68.14154652 -76.4543457 60.19360352 C-74.42877518 58.17882165 -72.41421616 56.15346725 -70.40039062 54.12695312 C-63.23715587 46.95643537 -55.98186119 40.25890819 -48 34 C-46.97178216 33.13740715 -45.94836581 32.26899623 -44.93359375 31.390625 C-30.96731088 19.41328069 -15.8259638 9.33469969 0 0 Z M-46 133 C-45 135 -45 135 -45 135 Z M-47 135 C-46 138 -46 138 -46 138 Z " fill="#03DE3A" transform="translate(315,12)"/>
</svg>
